# xmcd CD database file
# Copyright (C) 1993-1997  Ti Kan
#
# Track frame offsets:
#	150
#	9585
#	17957
#	28140
#	40552
#	51520
#	63540
#	73320
#	84610
#	95167
#	105307
#	117117
#	127902
#	138007
#	146412
#	156300
#	167412
#	177085
#	187840
#	199825
#	209362
#	220560
#	232062
#	243417
#	253792
#
# Disc length: 3521 seconds
#
# Revision: 4
# Processed by: cddbd v1.4b41PL1 Copyright (c) Steve Scherf et al.
# Submitted via: xmcd 2.1 PL2
#
DISCID=600dbf19
DTITLE=Willie Egan - Come On
DYEAR=1900
DGENRE=
TTITLE0=Wear Your Black Dress
TTITLE1=Can't Understand It
TTITLE2=Wow Wow
TTITLE3=Potato Stomp
TTITLE4=Come On
TTITLE5=Sometimes I Wonder
TTITLE6=She's Gone Away, But ...
TTITLE7=Whipped Cream
TTITLE8=What A Shame
TTITLE9=Willie's Blues
TTITLE10=Don't Know Where She Went
TTITLE11=Sad Sad Feeling
TTITLE12=Oh Baby
TTITLE13=I Can't Understand It
TTITLE14=Big Boy Groves - Big Boy's Bounce
TTITLE15=Big Boy Groves - You Can't Beat The Horses
TTITLE16=Harmonica Slim - Do What You Wanna Do
TTITLE17=Harmonica Slim - You Better Belieeve It
TTITLE18=Harmonica Slim - My Baby Won't Quit Me
TTITLE19=Harmonica Slim - Drop Anchoer
TTITLE20=Effie Smith and Squires - Water Water
TTITLE21=Effie Smith and Squires - You Ought To Be Ashamed Of Yourself
TTITLE22=Effie Smith and Squires - Champagne
TTITLE23=Effie Smith and Squires - Water Water
TTITLE24=Jimmy Thomason - Now Hear This
EXTD=
EXTT0=
EXTT1=
EXTT2=
EXTT3=
EXTT4=
EXTT5=
EXTT6=
EXTT7=
EXTT8=
EXTT9=
EXTT10=
EXTT11=
EXTT12=
EXTT13=
EXTT14=
EXTT15=
EXTT16=
EXTT17=
EXTT18=
EXTT19=
EXTT20=
EXTT21=
EXTT22=
EXTT23=
EXTT24=
PLAYORDER=
